<svg width="170" height="43" viewBox="0 0 170 43" fill="none" xmlns="http://www.w3.org/2000/svg">
<path d="M3.69141 17.0547C3.69141 16.4922 3.65234 13.918 3.57422 9.33203C3.55078 9.15234 3.45703 9 3.29297 8.875C3.13672 8.74219 2.90625 8.64062 2.60156 8.57031C2.29688 8.5 2.04688 8.44922 1.85156 8.41797C1.66406 8.38672 1.39844 8.35547 1.05469 8.32422C1.02344 8.18359 1.00781 8.08594 1.00781 8.03125C1.00781 7.98438 1.02344 7.89844 1.05469 7.77344C1.25781 7.78125 1.74219 7.80078 2.50781 7.83203C3.27344 7.85547 3.86328 7.86719 4.27734 7.86719C4.62891 7.86719 5.29297 7.85156 6.26953 7.82031C7.24609 7.78906 7.94922 7.77344 8.37891 7.77344C10.3789 7.77344 11.9062 8.23828 12.9609 9.16797C14.0156 10.0977 14.543 11.3359 14.543 12.8828C14.543 14.3516 14.0703 15.5508 13.125 16.4805C12.1797 17.4102 10.8359 17.875 9.09375 17.875C8.04688 17.875 7.10547 17.6562 6.26953 17.2188C6.26953 19.125 6.29297 21.1836 6.33984 23.3945C6.34766 23.5977 6.4375 23.7734 6.60938 23.9219C6.78125 24.0625 7.02734 24.1719 7.34766 24.25C7.67578 24.3281 7.94922 24.3867 8.16797 24.4258C8.39453 24.457 8.6875 24.4883 9.04688 24.5195C9.07812 24.6758 9.09375 24.7812 9.09375 24.8359C9.09375 24.8984 9.07812 24.9766 9.04688 25.0703C7.71875 25.0234 6.35938 25 4.96875 25C3.5625 25 2.20312 25.0234 0.890625 25.0703C0.859375 24.9766 0.84375 24.8984 0.84375 24.8359C0.84375 24.7031 0.859375 24.5977 0.890625 24.5195C1.25 24.4883 1.53906 24.457 1.75781 24.4258C1.98438 24.3867 2.25781 24.3281 2.57812 24.25C2.90625 24.1719 3.15625 24.0625 3.32812 23.9219C3.5 23.7734 3.58984 23.5977 3.59766 23.3945C3.66016 21.3867 3.69141 19.2734 3.69141 17.0547ZM6.33984 8.58203C6.29297 11.3945 6.26953 14.0117 6.26953 16.4336C6.91016 16.7227 7.54688 16.8672 8.17969 16.8672C9.28125 16.8672 10.1094 16.5117 10.6641 15.8008C11.2188 15.0898 11.4961 14.1094 11.4961 12.8594C11.4961 9.97656 10.0703 8.53516 7.21875 8.53516C7.03906 8.53516 6.74609 8.55078 6.33984 8.58203ZM17.3906 17.3008C17.3906 16.4414 17.7812 15.7344 18.5625 15.1797C19.3516 14.625 20.2812 14.3477 21.3516 14.3477C22.6641 14.3477 23.5859 14.6094 24.1172 15.1328C24.6562 15.6562 24.9258 16.5391 24.9258 17.7812V22.6445C24.9258 23.082 25.0859 23.3008 25.4062 23.3008C25.6641 23.3008 25.9922 22.9883 26.3906 22.3633C26.6719 22.3867 26.8633 22.5117 26.9648 22.7383C26.9102 22.8164 26.8164 22.957 26.6836 23.1602C26.5508 23.3633 26.4531 23.5078 26.3906 23.5938C26.3281 23.6797 26.2305 23.8125 26.0977 23.9922C25.9648 24.1641 25.8555 24.293 25.7695 24.3789C25.6914 24.4648 25.582 24.5664 25.4414 24.6836C25.3086 24.8008 25.1836 24.8906 25.0664 24.9531C24.957 25.0078 24.8281 25.0547 24.6797 25.0938C24.5312 25.1406 24.3828 25.1641 24.2344 25.1641C23.8438 25.1641 23.5195 25.0234 23.2617 24.7422C23.0117 24.4609 22.8633 24.0273 22.8164 23.4414C22.8086 23.4492 22.6875 23.5625 22.4531 23.7812C22.2188 24 22.0547 24.1484 21.9609 24.2266C21.875 24.2969 21.707 24.4258 21.457 24.6133C21.2148 24.793 21.0078 24.9219 20.8359 25C20.6641 25.0781 20.4492 25.1523 20.1914 25.2227C19.9336 25.3008 19.6797 25.3398 19.4297 25.3398C19.0312 25.3398 18.6758 25.2852 18.3633 25.1758C18.0586 25.0664 17.8203 24.9336 17.6484 24.7773C17.4766 24.6211 17.3359 24.4414 17.2266 24.2383C17.1172 24.0273 17.043 23.8359 17.0039 23.6641C16.9727 23.4922 16.957 23.3203 16.957 23.1484C16.957 22.625 17.043 22.1836 17.2148 21.8242C17.3945 21.4648 17.7227 21.1289 18.1992 20.8164C18.6836 20.5039 19.2773 20.2266 19.9805 19.9844C20.6836 19.7422 21.6289 19.4688 22.8164 19.1641V17.5352C22.8164 16.7461 22.6406 16.1562 22.2891 15.7656C21.9453 15.375 21.4805 15.1797 20.8945 15.1797C20.3711 15.1797 19.9297 15.2852 19.5703 15.4961C19.2188 15.6992 19.0039 15.9375 18.9258 16.2109C19.6914 16.3281 20.0742 16.7461 20.0742 17.4648C20.0742 17.793 19.957 18.082 19.7227 18.332C19.4883 18.582 19.1602 18.707 18.7383 18.707C18.3867 18.707 18.0742 18.5859 17.8008 18.3438C17.5273 18.0938 17.3906 17.7461 17.3906 17.3008ZM22.8164 22.3633V19.9141C22.0977 20.0781 21.5039 20.2578 21.0352 20.4531C20.5664 20.6406 20.207 20.8477 19.957 21.0742C19.7148 21.3008 19.5469 21.5352 19.4531 21.7773C19.3594 22.0117 19.3125 22.2852 19.3125 22.5977C19.3125 22.9883 19.4258 23.2969 19.6523 23.5234C19.8867 23.7422 20.1719 23.8516 20.5078 23.8516C21.2891 23.8516 22.0586 23.3555 22.8164 22.3633ZM31.7812 12.3555C31.8594 12.3242 31.9492 12.3086 32.0508 12.3086C32.1523 12.3086 32.2578 12.3242 32.3672 12.3555V14.9219H35.918C35.9648 15.0391 35.9883 15.1836 35.9883 15.3555C35.9883 15.5039 35.9648 15.6406 35.918 15.7656H32.3672V22.0234C32.3672 23.2578 32.9336 23.875 34.0664 23.875C34.4961 23.875 34.8633 23.793 35.168 23.6289C35.4805 23.4648 35.8242 23.2188 36.1992 22.8906C36.3945 22.9141 36.5234 23.0078 36.5859 23.1719C36.2422 23.7891 35.7344 24.3047 35.0625 24.7188C34.3906 25.1328 33.6523 25.3398 32.8477 25.3398C30.957 25.3398 30.0117 24.1953 30.0117 21.9062V15.7656H28.5703C28.5391 15.625 28.5234 15.5352 28.5234 15.4961C28.5234 15.4883 28.5391 15.3984 28.5703 15.2266C28.9453 15.0391 29.2305 14.8867 29.4258 14.7695C29.6289 14.6445 29.8828 14.4688 30.1875 14.2422C30.5 14.0156 30.7812 13.75 31.0312 13.4453C31.2891 13.1328 31.5391 12.7695 31.7812 12.3555ZM37.8516 15.3555C39.3672 15.1992 40.6875 14.8789 41.8125 14.3945C42.0078 14.4727 42.1445 14.5742 42.2227 14.6992V16.7148C42.5117 16.168 42.9414 15.6367 43.5117 15.1211C44.0898 14.6055 44.6914 14.3477 45.3164 14.3477C45.7852 14.3477 46.1641 14.4883 46.4531 14.7695C46.75 15.043 46.8984 15.4219 46.8984 15.9062C46.8984 16.3672 46.7617 16.7266 46.4883 16.9844C46.2148 17.2422 45.8711 17.3711 45.457 17.3711C45.0742 17.3711 44.7578 17.25 44.5078 17.0078C44.2656 16.7578 44.1328 16.4297 44.1094 16.0234C43.7812 16.1641 43.4062 16.4766 42.9844 16.9609C42.5703 17.4453 42.3164 17.9258 42.2227 18.4023C42.2227 20.1445 42.2539 21.8086 42.3164 23.3945C42.3242 23.5977 42.3984 23.7734 42.5391 23.9219C42.6797 24.0625 42.8867 24.1719 43.1602 24.25C43.4336 24.3281 43.6602 24.3867 43.8398 24.4258C44.0195 24.457 44.2539 24.4883 44.543 24.5195C44.5898 24.6133 44.6133 24.7109 44.6133 24.8125C44.6133 24.8906 44.5898 24.9766 44.543 25.0703C43.3711 25.0234 42.2109 25 41.0625 25C40.1094 25 39.1172 25.0234 38.0859 25.0703C38.0547 24.9453 38.0391 24.8594 38.0391 24.8125C38.0391 24.7734 38.0547 24.6758 38.0859 24.5195C38.3438 24.4883 38.5547 24.457 38.7188 24.4258C38.8828 24.3867 39.0859 24.3281 39.3281 24.25C39.5703 24.1719 39.7539 24.0625 39.8789 23.9219C40.0039 23.7734 40.0703 23.5977 40.0781 23.3945C40.1094 22.6211 40.125 21.6836 40.125 20.582C40.125 20.2148 40.1211 19.5898 40.1133 18.707C40.1055 17.8242 40.1016 17.0508 40.1016 16.3867C39.6562 16.1133 38.9062 15.9531 37.8516 15.9062C37.8203 15.7812 37.8047 15.6836 37.8047 15.6133C37.8047 15.5664 37.8203 15.4805 37.8516 15.3555ZM48.3984 15.3555C49.9141 15.1992 51.2344 14.8789 52.3594 14.3945C52.5547 14.4727 52.6914 14.5742 52.7695 14.6992C52.7695 18.7539 52.8008 21.6523 52.8633 23.3945C52.8711 23.5977 52.9297 23.7734 53.0391 23.9219C53.1562 24.0625 53.3203 24.1719 53.5312 24.25C53.7422 24.3281 53.918 24.3867 54.0586 24.4258C54.1992 24.457 54.3828 24.4883 54.6094 24.5195C54.6562 24.6133 54.6797 24.7109 54.6797 24.8125C54.6797 24.9141 54.6562 25 54.6094 25.0703C53.5781 25.0234 52.5781 25 51.6094 25C50.6562 25 49.6641 25.0234 48.6328 25.0703C48.6016 24.9453 48.5859 24.8594 48.5859 24.8125C48.5859 24.7734 48.6016 24.6758 48.6328 24.5195C48.8906 24.4883 49.1016 24.457 49.2656 24.4258C49.4297 24.3867 49.6328 24.3281 49.875 24.25C50.1172 24.1719 50.3008 24.0625 50.4258 23.9219C50.5508 23.7734 50.6172 23.5977 50.625 23.3945C50.6562 22.6211 50.6719 21.6836 50.6719 20.582C50.6719 20.2148 50.668 19.5898 50.6602 18.707C50.6523 17.8242 50.6484 17.0508 50.6484 16.3867C50.2031 16.1133 49.4531 15.9531 48.3984 15.9062C48.3672 15.7812 48.3516 15.6836 48.3516 15.6133C48.3516 15.5664 48.3672 15.4805 48.3984 15.3555ZM50.2383 10.457C50.2383 10.0586 50.3789 9.71875 50.6602 9.4375C50.9492 9.15625 51.2891 9.01562 51.6797 9.01562C52.0781 9.01562 52.418 9.15625 52.6992 9.4375C52.9805 9.71875 53.1211 10.0586 53.1211 10.457C53.1211 10.8477 52.9805 11.1875 52.6992 11.4766C52.418 11.7578 52.0781 11.8984 51.6797 11.8984C51.2891 11.8984 50.9492 11.7578 50.6602 11.4766C50.3789 11.1875 50.2383 10.8477 50.2383 10.457ZM65.7539 21.9531C65.9414 21.9922 66.0938 22.0781 66.2109 22.2109C65.8203 23.2578 65.2148 24.043 64.3945 24.5664C63.5742 25.082 62.6836 25.3398 61.7227 25.3398C61.2461 25.3398 60.7812 25.2773 60.3281 25.1523C59.875 25.0352 59.4336 24.8398 59.0039 24.5664C58.582 24.293 58.2109 23.957 57.8906 23.5586C57.5781 23.1523 57.3242 22.6484 57.1289 22.0469C56.9414 21.4375 56.8477 20.7656 56.8477 20.0312C56.8477 18.3359 57.3672 16.9648 58.4062 15.918C59.4453 14.8711 60.7422 14.3477 62.2969 14.3477C63.3906 14.3477 64.2812 14.5859 64.9688 15.0625C65.6641 15.5312 66.0117 16.1328 66.0117 16.8672C66.0117 17.2812 65.875 17.625 65.6016 17.8984C65.3281 18.1719 64.9922 18.3086 64.5938 18.3086C64.1719 18.3086 63.832 18.1875 63.5742 17.9453C63.3164 17.6953 63.1875 17.4062 63.1875 17.0781C63.1875 16.4844 63.4883 16.1094 64.0898 15.9531C64.0352 15.7734 63.8594 15.5898 63.5625 15.4023C63.2656 15.207 62.8438 15.1094 62.2969 15.1094C62.0156 15.1094 61.75 15.1445 61.5 15.2148C61.25 15.2773 60.9805 15.4141 60.6914 15.625C60.4102 15.8359 60.168 16.1133 59.9648 16.457C59.7695 16.8008 59.6055 17.2812 59.4727 17.8984C59.3398 18.5078 59.2734 19.2188 59.2734 20.0312C59.2734 20.5781 59.3281 21.0742 59.4375 21.5195C59.5547 21.9648 59.7344 22.3672 59.9766 22.7266C60.2188 23.0859 60.5508 23.3672 60.9727 23.5703C61.3945 23.7734 61.8906 23.875 62.4609 23.875C62.8203 23.875 63.1602 23.8281 63.4805 23.7344C63.8008 23.6328 64.0586 23.5273 64.2539 23.418C64.457 23.3086 64.6719 23.1445 64.8984 22.9258C65.1328 22.6992 65.2891 22.5391 65.3672 22.4453C65.4453 22.3438 65.5742 22.1797 65.7539 21.9531ZM67.8281 15.3555C69.3438 15.1992 70.6641 14.8789 71.7891 14.3945C71.9844 14.4727 72.1211 14.5742 72.1992 14.6992C72.1992 18.7539 72.2305 21.6523 72.293 23.3945C72.3008 23.5977 72.3594 23.7734 72.4688 23.9219C72.5859 24.0625 72.75 24.1719 72.9609 24.25C73.1719 24.3281 73.3477 24.3867 73.4883 24.4258C73.6289 24.457 73.8125 24.4883 74.0391 24.5195C74.0859 24.6133 74.1094 24.7109 74.1094 24.8125C74.1094 24.9141 74.0859 25 74.0391 25.0703C73.0078 25.0234 72.0078 25 71.0391 25C70.0859 25 69.0938 25.0234 68.0625 25.0703C68.0312 24.9453 68.0156 24.8594 68.0156 24.8125C68.0156 24.7734 68.0312 24.6758 68.0625 24.5195C68.3203 24.4883 68.5312 24.457 68.6953 24.4258C68.8594 24.3867 69.0625 24.3281 69.3047 24.25C69.5469 24.1719 69.7305 24.0625 69.8555 23.9219C69.9805 23.7734 70.0469 23.5977 70.0547 23.3945C70.0859 22.6211 70.1016 21.6836 70.1016 20.582C70.1016 20.2148 70.0977 19.5898 70.0898 18.707C70.082 17.8242 70.0781 17.0508 70.0781 16.3867C69.6328 16.1133 68.8828 15.9531 67.8281 15.9062C67.7969 15.7812 67.7812 15.6836 67.7812 15.6133C67.7812 15.5664 67.7969 15.4805 67.8281 15.3555ZM69.668 10.457C69.668 10.0586 69.8086 9.71875 70.0898 9.4375C70.3789 9.15625 70.7188 9.01562 71.1094 9.01562C71.5078 9.01562 71.8477 9.15625 72.1289 9.4375C72.4102 9.71875 72.5508 10.0586 72.5508 10.457C72.5508 10.8477 72.4102 11.1875 72.1289 11.4766C71.8477 11.7578 71.5078 11.8984 71.1094 11.8984C70.7188 11.8984 70.3789 11.7578 70.0898 11.4766C69.8086 11.1875 69.668 10.8477 69.668 10.457ZM76.8281 17.3008C76.8281 16.4414 77.2188 15.7344 78 15.1797C78.7891 14.625 79.7188 14.3477 80.7891 14.3477C82.1016 14.3477 83.0234 14.6094 83.5547 15.1328C84.0938 15.6562 84.3633 16.5391 84.3633 17.7812V22.6445C84.3633 23.082 84.5234 23.3008 84.8438 23.3008C85.1016 23.3008 85.4297 22.9883 85.8281 22.3633C86.1094 22.3867 86.3008 22.5117 86.4023 22.7383C86.3477 22.8164 86.2539 22.957 86.1211 23.1602C85.9883 23.3633 85.8906 23.5078 85.8281 23.5938C85.7656 23.6797 85.668 23.8125 85.5352 23.9922C85.4023 24.1641 85.293 24.293 85.207 24.3789C85.1289 24.4648 85.0195 24.5664 84.8789 24.6836C84.7461 24.8008 84.6211 24.8906 84.5039 24.9531C84.3945 25.0078 84.2656 25.0547 84.1172 25.0938C83.9688 25.1406 83.8203 25.1641 83.6719 25.1641C83.2812 25.1641 82.957 25.0234 82.6992 24.7422C82.4492 24.4609 82.3008 24.0273 82.2539 23.4414C82.2461 23.4492 82.125 23.5625 81.8906 23.7812C81.6562 24 81.4922 24.1484 81.3984 24.2266C81.3125 24.2969 81.1445 24.4258 80.8945 24.6133C80.6523 24.793 80.4453 24.9219 80.2734 25C80.1016 25.0781 79.8867 25.1523 79.6289 25.2227C79.3711 25.3008 79.1172 25.3398 78.8672 25.3398C78.4688 25.3398 78.1133 25.2852 77.8008 25.1758C77.4961 25.0664 77.2578 24.9336 77.0859 24.7773C76.9141 24.6211 76.7734 24.4414 76.6641 24.2383C76.5547 24.0273 76.4805 23.8359 76.4414 23.6641C76.4102 23.4922 76.3945 23.3203 76.3945 23.1484C76.3945 22.625 76.4805 22.1836 76.6523 21.8242C76.832 21.4648 77.1602 21.1289 77.6367 20.8164C78.1211 20.5039 78.7148 20.2266 79.418 19.9844C80.1211 19.7422 81.0664 19.4688 82.2539 19.1641V17.5352C82.2539 16.7461 82.0781 16.1562 81.7266 15.7656C81.3828 15.375 80.918 15.1797 80.332 15.1797C79.8086 15.1797 79.3672 15.2852 79.0078 15.4961C78.6562 15.6992 78.4414 15.9375 78.3633 16.2109C79.1289 16.3281 79.5117 16.7461 79.5117 17.4648C79.5117 17.793 79.3945 18.082 79.1602 18.332C78.9258 18.582 78.5977 18.707 78.1758 18.707C77.8242 18.707 77.5117 18.5859 77.2383 18.3438C76.9648 18.0938 76.8281 17.7461 76.8281 17.3008ZM82.2539 22.3633V19.9141C81.5352 20.0781 80.9414 20.2578 80.4727 20.4531C80.0039 20.6406 79.6445 20.8477 79.3945 21.0742C79.1523 21.3008 78.9844 21.5352 78.8906 21.7773C78.7969 22.0117 78.75 22.2852 78.75 22.5977C78.75 22.9883 78.8633 23.2969 79.0898 23.5234C79.3242 23.7422 79.6094 23.8516 79.9453 23.8516C80.7266 23.8516 81.4961 23.3555 82.2539 22.3633ZM102.504 7.59766C102.621 7.51172 102.746 7.45703 102.879 7.43359L109.289 23.4414C109.367 23.6367 109.496 23.8047 109.676 23.9453C109.855 24.0781 110.078 24.1836 110.344 24.2617C110.617 24.332 110.852 24.3867 111.047 24.4258C111.25 24.457 111.496 24.4883 111.785 24.5195C111.816 24.6445 111.832 24.75 111.832 24.8359C111.832 24.9297 111.816 25.0156 111.785 25.0938C110.098 25.0312 108.836 25 108 25C107.094 25 105.781 25.0312 104.062 25.0938C104.031 25 104.016 24.9062 104.016 24.8125C104.016 24.7109 104.031 24.6133 104.062 24.5195C105.641 24.3477 106.43 24.0508 106.43 23.6289C106.43 23.4961 106.414 23.3594 106.383 23.2188L104.684 18.8594C104.168 18.8438 103.473 18.8359 102.598 18.8359C102.184 18.8359 101.109 18.8516 99.375 18.8828L97.582 23.4414V23.582C97.582 23.6602 97.5938 23.7344 97.6172 23.8047C97.6484 23.875 97.6953 23.9375 97.7578 23.9922C97.8281 24.0469 97.8945 24.0938 97.957 24.1328C98.0195 24.1719 98.1055 24.2109 98.2148 24.25C98.332 24.2812 98.4297 24.3086 98.5078 24.332C98.5938 24.3477 98.707 24.3672 98.8477 24.3906C98.9961 24.4141 99.1094 24.4336 99.1875 24.4492C99.2656 24.457 99.3789 24.4688 99.5273 24.4844C99.6836 24.5 99.793 24.5117 99.8555 24.5195C99.8867 24.6445 99.9023 24.75 99.9023 24.8359C99.9023 24.8828 99.8867 24.9688 99.8555 25.0938C98.1055 25.0312 97.1211 25 96.9023 25C96.4805 25 95.3945 25.0312 93.6445 25.0938C93.6133 25 93.5977 24.9062 93.5977 24.8125C93.5977 24.7109 93.6133 24.6133 93.6445 24.5195C95.2695 24.332 96.1953 23.9336 96.4219 23.3242L101.461 10.6211L101.203 9.92969C101.648 9.63281 101.957 9.3125 102.129 8.96875C102.309 8.625 102.434 8.16797 102.504 7.59766ZM102.598 17.9219C103.316 17.9219 103.883 17.9141 104.297 17.8984L102.07 12.1328H102.023L99.7852 17.875C100.52 17.9062 101.457 17.9219 102.598 17.9219ZM113.203 15.3555C114.719 15.1992 116.039 14.8789 117.164 14.3945C117.359 14.4727 117.496 14.5742 117.574 14.6992V16.7148C117.863 16.168 118.293 15.6367 118.863 15.1211C119.441 14.6055 120.043 14.3477 120.668 14.3477C121.137 14.3477 121.516 14.4883 121.805 14.7695C122.102 15.043 122.25 15.4219 122.25 15.9062C122.25 16.3672 122.113 16.7266 121.84 16.9844C121.566 17.2422 121.223 17.3711 120.809 17.3711C120.426 17.3711 120.109 17.25 119.859 17.0078C119.617 16.7578 119.484 16.4297 119.461 16.0234C119.133 16.1641 118.758 16.4766 118.336 16.9609C117.922 17.4453 117.668 17.9258 117.574 18.4023C117.574 20.1445 117.605 21.8086 117.668 23.3945C117.676 23.5977 117.75 23.7734 117.891 23.9219C118.031 24.0625 118.238 24.1719 118.512 24.25C118.785 24.3281 119.012 24.3867 119.191 24.4258C119.371 24.457 119.605 24.4883 119.895 24.5195C119.941 24.6133 119.965 24.7109 119.965 24.8125C119.965 24.8906 119.941 24.9766 119.895 25.0703C118.723 25.0234 117.562 25 116.414 25C115.461 25 114.469 25.0234 113.438 25.0703C113.406 24.9453 113.391 24.8594 113.391 24.8125C113.391 24.7734 113.406 24.6758 113.438 24.5195C113.695 24.4883 113.906 24.457 114.07 24.4258C114.234 24.3867 114.438 24.3281 114.68 24.25C114.922 24.1719 115.105 24.0625 115.23 23.9219C115.355 23.7734 115.422 23.5977 115.43 23.3945C115.461 22.6211 115.477 21.6836 115.477 20.582C115.477 20.2148 115.473 19.5898 115.465 18.707C115.457 17.8242 115.453 17.0508 115.453 16.3867C115.008 16.1133 114.258 15.9531 113.203 15.9062C113.172 15.7812 113.156 15.6836 113.156 15.6133C113.156 15.5664 113.172 15.4805 113.203 15.3555ZM124.852 17.3008C124.852 16.4414 125.242 15.7344 126.023 15.1797C126.812 14.625 127.742 14.3477 128.812 14.3477C130.125 14.3477 131.047 14.6094 131.578 15.1328C132.117 15.6562 132.387 16.5391 132.387 17.7812V22.6445C132.387 23.082 132.547 23.3008 132.867 23.3008C133.125 23.3008 133.453 22.9883 133.852 22.3633C134.133 22.3867 134.324 22.5117 134.426 22.7383C134.371 22.8164 134.277 22.957 134.145 23.1602C134.012 23.3633 133.914 23.5078 133.852 23.5938C133.789 23.6797 133.691 23.8125 133.559 23.9922C133.426 24.1641 133.316 24.293 133.23 24.3789C133.152 24.4648 133.043 24.5664 132.902 24.6836C132.77 24.8008 132.645 24.8906 132.527 24.9531C132.418 25.0078 132.289 25.0547 132.141 25.0938C131.992 25.1406 131.844 25.1641 131.695 25.1641C131.305 25.1641 130.98 25.0234 130.723 24.7422C130.473 24.4609 130.324 24.0273 130.277 23.4414C130.27 23.4492 130.148 23.5625 129.914 23.7812C129.68 24 129.516 24.1484 129.422 24.2266C129.336 24.2969 129.168 24.4258 128.918 24.6133C128.676 24.793 128.469 24.9219 128.297 25C128.125 25.0781 127.91 25.1523 127.652 25.2227C127.395 25.3008 127.141 25.3398 126.891 25.3398C126.492 25.3398 126.137 25.2852 125.824 25.1758C125.52 25.0664 125.281 24.9336 125.109 24.7773C124.938 24.6211 124.797 24.4414 124.688 24.2383C124.578 24.0273 124.504 23.8359 124.465 23.6641C124.434 23.4922 124.418 23.3203 124.418 23.1484C124.418 22.625 124.504 22.1836 124.676 21.8242C124.855 21.4648 125.184 21.1289 125.66 20.8164C126.145 20.5039 126.738 20.2266 127.441 19.9844C128.145 19.7422 129.09 19.4688 130.277 19.1641V17.5352C130.277 16.7461 130.102 16.1562 129.75 15.7656C129.406 15.375 128.941 15.1797 128.355 15.1797C127.832 15.1797 127.391 15.2852 127.031 15.4961C126.68 15.6992 126.465 15.9375 126.387 16.2109C127.152 16.3281 127.535 16.7461 127.535 17.4648C127.535 17.793 127.418 18.082 127.184 18.332C126.949 18.582 126.621 18.707 126.199 18.707C125.848 18.707 125.535 18.5859 125.262 18.3438C124.988 18.0938 124.852 17.7461 124.852 17.3008ZM130.277 22.3633V19.9141C129.559 20.0781 128.965 20.2578 128.496 20.4531C128.027 20.6406 127.668 20.8477 127.418 21.0742C127.176 21.3008 127.008 21.5352 126.914 21.7773C126.82 22.0117 126.773 22.2852 126.773 22.5977C126.773 22.9883 126.887 23.2969 127.113 23.5234C127.348 23.7422 127.633 23.8516 127.969 23.8516C128.75 23.8516 129.52 23.3555 130.277 22.3633ZM135.715 14.6055C135.996 14.6211 136.277 14.6367 136.559 14.6523C136.84 14.668 137.062 14.6797 137.227 14.6875C137.391 14.6953 137.543 14.6992 137.684 14.6992C137.801 14.6992 137.938 14.6953 138.094 14.6875C138.25 14.6797 138.461 14.668 138.727 14.6523C139 14.6367 139.262 14.6211 139.512 14.6055C139.652 14.6523 139.766 14.7734 139.852 14.9688C139.844 15.0312 139.828 15.125 139.805 15.25C139.789 15.3672 139.773 15.5117 139.758 15.6836C139.75 15.8477 139.746 16.0508 139.746 16.293L139.723 21.8594C139.723 23.2656 140.148 23.9688 141 23.9688C141.789 23.9688 142.91 23.4492 144.363 22.4102C144.363 20.082 144.328 18.043 144.258 16.293C144.258 16.1523 144.23 16.0273 144.176 15.918C144.121 15.8086 144.035 15.7148 143.918 15.6367C143.809 15.5586 143.707 15.4961 143.613 15.4492C143.527 15.3945 143.398 15.3477 143.227 15.3086C143.055 15.2617 142.934 15.2344 142.863 15.2266C142.793 15.2109 142.676 15.1875 142.512 15.1562C142.48 15.0312 142.465 14.9375 142.465 14.875C142.465 14.8203 142.48 14.7305 142.512 14.6055C142.785 14.6211 143.062 14.6367 143.344 14.6523C143.633 14.668 143.859 14.6797 144.023 14.6875C144.188 14.6953 144.34 14.6992 144.48 14.6992C144.598 14.6992 144.734 14.6953 144.891 14.6875C145.047 14.6797 145.258 14.668 145.523 14.6523C145.797 14.6367 146.059 14.6211 146.309 14.6055C146.348 14.6289 146.379 14.6523 146.402 14.6758C146.434 14.6914 146.457 14.7148 146.473 14.7461C146.496 14.7695 146.512 14.7891 146.52 14.8047C146.527 14.8125 146.539 14.8398 146.555 14.8867C146.57 14.9258 146.582 14.9531 146.59 14.9688C146.527 15.3906 146.496 15.832 146.496 16.293C146.449 17.4414 146.426 18.375 146.426 19.0938C146.426 19.4688 146.434 20.0977 146.449 20.9805C146.465 21.8633 146.473 22.6367 146.473 23.3008C146.918 23.5586 147.668 23.7188 148.723 23.7812C148.762 23.9766 148.781 24.0781 148.781 24.0859C148.781 24.1328 148.762 24.2148 148.723 24.332C147.246 24.4727 145.926 24.793 144.762 25.293C144.559 25.207 144.426 25.1016 144.363 24.9766V23.1484C143.582 23.8203 142.844 24.3555 142.148 24.7539C141.461 25.1445 140.766 25.3398 140.062 25.3398C139.172 25.3398 138.539 25.0898 138.164 24.5898C137.797 24.0898 137.605 23.3047 137.59 22.2344L137.496 16.293C137.48 16.1133 137.445 15.9805 137.391 15.8945C137.344 15.8008 137.262 15.7148 137.145 15.6367C137.035 15.5586 136.934 15.4961 136.84 15.4492C136.746 15.3945 136.613 15.3477 136.441 15.3086C136.27 15.2617 136.148 15.2344 136.078 15.2266C136.008 15.2109 135.887 15.1875 135.715 15.1562C135.684 15.0312 135.668 14.9375 135.668 14.875C135.668 14.8203 135.684 14.7305 135.715 14.6055ZM140.836 11.875L143.672 8.34766C143.992 7.98047 144.352 7.79688 144.75 7.79688C145.047 7.79688 145.289 7.89062 145.477 8.07812C145.664 8.25781 145.758 8.5 145.758 8.80469C145.758 9.125 145.613 9.41016 145.324 9.66016C145.215 9.76172 144.938 9.95312 144.492 10.2344L141.176 12.3086L140.836 11.875ZM152.555 23.3945L152.508 16.3867C152.062 16.1133 151.309 15.9531 150.246 15.9062C150.215 15.7812 150.199 15.6836 150.199 15.6133C150.199 15.5664 150.215 15.4805 150.246 15.3555C151.777 15.1992 153.098 14.8789 154.207 14.3945C154.418 14.4648 154.555 14.5664 154.617 14.6992C154.617 16.4727 154.625 18.4336 154.641 20.582C154.656 22.7227 154.664 24.4766 154.664 25.8438C154.664 26.5781 154.609 27.2578 154.5 27.8828C154.391 28.5078 154.203 29.1133 153.938 29.6992C153.68 30.2852 153.297 30.7461 152.789 31.082C152.289 31.4258 151.684 31.5977 150.973 31.5977C150.16 31.5977 149.492 31.3672 148.969 30.9062C148.445 30.4531 148.184 29.8828 148.184 29.1953C148.184 28.7422 148.32 28.3672 148.594 28.0703C148.867 27.7812 149.234 27.6367 149.695 27.6367C150.117 27.6367 150.445 27.75 150.68 27.9766C150.922 28.2109 151.043 28.5312 151.043 28.9375C151.043 29.2188 150.953 29.4727 150.773 29.6992C150.602 29.9336 150.348 30.0781 150.012 30.1328C150.113 30.6016 150.465 30.8359 151.066 30.8359C151.574 30.8359 151.949 30.6016 152.191 30.1328C152.434 29.6719 152.555 28.8828 152.555 27.7656V23.3945ZM152.098 10.457C152.098 10.0586 152.238 9.71875 152.52 9.4375C152.801 9.15625 153.141 9.01562 153.539 9.01562C153.93 9.01562 154.266 9.15625 154.547 9.4375C154.836 9.71875 154.98 10.0586 154.98 10.457C154.98 10.8477 154.836 11.1875 154.547 11.4766C154.266 11.7578 153.93 11.8984 153.539 11.8984C153.141 11.8984 152.801 11.7578 152.52 11.4766C152.238 11.1875 152.098 10.8477 152.098 10.457ZM163.512 14.3477C164.285 14.3477 164.98 14.4844 165.598 14.7578C166.223 15.0312 166.754 15.4102 167.191 15.8945C167.629 16.3789 167.965 16.9609 168.199 17.6406C168.434 18.3125 168.551 19.0469 168.551 19.8438C168.551 21.4688 168.094 22.7891 167.18 23.8047C166.273 24.8281 165.051 25.3398 163.512 25.3398C162.746 25.3398 162.051 25.207 161.426 24.9414C160.809 24.668 160.281 24.2891 159.844 23.8047C159.406 23.3125 159.066 22.7305 158.824 22.0586C158.59 21.3867 158.473 20.6484 158.473 19.8438C158.473 19.0469 158.59 18.3125 158.824 17.6406C159.059 16.9609 159.391 16.3789 159.82 15.8945C160.258 15.4102 160.789 15.0312 161.414 14.7578C162.039 14.4844 162.738 14.3477 163.512 14.3477ZM163.512 15.1094C162.715 15.1094 162.078 15.4961 161.602 16.2695C161.133 17.043 160.898 18.2344 160.898 19.8438C160.898 21.4531 161.133 22.6445 161.602 23.418C162.078 24.1836 162.715 24.5664 163.512 24.5664C164.309 24.5664 164.941 24.1797 165.41 23.4062C165.887 22.6328 166.125 21.4453 166.125 19.8438C166.125 19.0391 166.062 18.3398 165.938 17.7461C165.812 17.1523 165.637 16.6602 165.41 16.2695C165.184 15.8789 164.91 15.5898 164.59 15.4023C164.27 15.207 163.91 15.1094 163.512 15.1094Z" fill="black"/>
<g style="mix-blend-mode:multiply">
<path d="M46.0938 30.8652C45.9453 30.1504 45.6719 29.5957 45.2734 29.2012C44.8789 28.8066 44.4043 28.6094 43.8496 28.6094C43.3066 28.6094 42.8848 28.7383 42.584 28.9961C42.2871 29.2539 42.1387 29.5977 42.1387 30.0273C42.1387 30.2656 42.1602 30.4629 42.2031 30.6191C42.2461 30.7754 42.334 30.9277 42.4668 31.0762C42.5996 31.2207 42.793 31.3496 43.0469 31.4629C43.3008 31.5723 43.6328 31.6777 44.043 31.7793C44.2656 31.834 44.459 31.8848 44.623 31.9316C44.791 31.9785 44.9746 32.043 45.1738 32.125C45.377 32.207 45.5508 32.2949 45.6953 32.3887C45.8438 32.4824 45.9902 32.5996 46.1348 32.7402C46.2832 32.877 46.4023 33.0293 46.4922 33.1973C46.5859 33.3652 46.6602 33.5645 46.7148 33.7949C46.7734 34.0215 46.8027 34.2695 46.8027 34.5391C46.8027 34.8984 46.7363 35.2305 46.6035 35.5352C46.4707 35.8359 46.2969 36.0898 46.082 36.2969C45.8672 36.5039 45.6191 36.6797 45.3379 36.8242C45.0566 36.9688 44.7715 37.0742 44.4824 37.1406C44.1934 37.207 43.9062 37.2402 43.6211 37.2402C42.7539 37.2402 41.8301 37.0156 40.8496 36.5664C40.8691 36.1445 40.8789 35.8848 40.8789 35.7871C40.8789 35.1504 40.8262 34.5156 40.7207 33.8828C40.7637 33.8555 40.8066 33.8418 40.8496 33.8418C40.9043 33.8418 40.9531 33.8555 40.9961 33.8828C41.0781 34.3867 41.2129 34.832 41.4004 35.2188C41.5918 35.6055 41.8105 35.9121 42.0566 36.1387C42.3027 36.3613 42.5566 36.5293 42.8184 36.6426C43.084 36.752 43.3516 36.8066 43.6211 36.8066C44.2344 36.8066 44.7051 36.6484 45.0332 36.332C45.3652 36.0117 45.5312 35.5898 45.5312 35.0664C45.5312 34.5391 45.4082 34.1426 45.1621 33.877C44.9199 33.6074 44.4551 33.3887 43.7676 33.2207C42.9082 33.0059 42.2363 32.6895 41.752 32.2715C41.2715 31.8496 41.0312 31.293 41.0312 30.6016C41.0312 30.2383 41.0898 29.9141 41.207 29.6289C41.3281 29.3398 41.4824 29.1094 41.6699 28.9375C41.8613 28.7617 42.084 28.6172 42.3379 28.5039C42.5918 28.3867 42.8418 28.3066 43.0879 28.2637C43.3379 28.2168 43.5918 28.1934 43.8496 28.1934C44.623 28.1934 45.4277 28.373 46.2637 28.7324C46.2402 28.9629 46.2285 29.2031 46.2285 29.4531C46.2285 30.0391 46.2754 30.5098 46.3691 30.8652C46.3184 30.8848 46.2754 30.8945 46.2402 30.8945C46.2012 30.8945 46.1523 30.8848 46.0938 30.8652ZM50.7637 31.6738C51.1504 31.6738 51.498 31.7422 51.8066 31.8789C52.1191 32.0156 52.3848 32.2051 52.6035 32.4473C52.8223 32.6895 52.9902 32.9805 53.1074 33.3203C53.2246 33.6562 53.2832 34.0234 53.2832 34.4219C53.2832 35.2344 53.0547 35.8945 52.5977 36.4023C52.1445 36.9141 51.5332 37.1699 50.7637 37.1699C50.3809 37.1699 50.0332 37.1035 49.7207 36.9707C49.4121 36.834 49.1484 36.6445 48.9297 36.4023C48.7109 36.1562 48.541 35.8652 48.4199 35.5293C48.3027 35.1934 48.2441 34.8242 48.2441 34.4219C48.2441 34.0234 48.3027 33.6562 48.4199 33.3203C48.5371 32.9805 48.7031 32.6895 48.918 32.4473C49.1367 32.2051 49.4023 32.0156 49.7148 31.8789C50.0273 31.7422 50.377 31.6738 50.7637 31.6738ZM50.7637 32.0547C50.3652 32.0547 50.0469 32.248 49.8086 32.6348C49.5742 33.0215 49.457 33.6172 49.457 34.4219C49.457 35.2266 49.5742 35.8223 49.8086 36.209C50.0469 36.5918 50.3652 36.7832 50.7637 36.7832C51.1621 36.7832 51.4785 36.5898 51.7129 36.2031C51.9512 35.8164 52.0703 35.2227 52.0703 34.4219C52.0703 34.0195 52.0391 33.6699 51.9766 33.373C51.9141 33.0762 51.8262 32.8301 51.7129 32.6348C51.5996 32.4395 51.4629 32.2949 51.3027 32.2012C51.1426 32.1035 50.9629 32.0547 50.7637 32.0547ZM57.748 37.0352C57.2324 37.0117 56.6289 37 55.9375 37C55.4609 37 54.9648 37.0117 54.4492 37.0352C54.4336 36.9727 54.4258 36.9297 54.4258 36.9062C54.4258 36.8867 54.4336 36.8379 54.4492 36.7598C54.5781 36.7441 54.6816 36.7285 54.7598 36.7129C54.8418 36.6934 54.9434 36.6641 55.0645 36.625C55.1895 36.5859 55.2832 36.5312 55.3457 36.4609C55.4082 36.3867 55.4414 36.2988 55.4453 36.1973C55.4609 35.8105 55.4688 34.5391 55.4688 32.3828H54.6777C54.6543 32.3203 54.6426 32.252 54.6426 32.1777C54.6426 32.0918 54.6543 32.0195 54.6777 31.9609H55.4688V31.3457C55.4688 30.916 55.5234 30.5098 55.6328 30.127C55.7461 29.7402 55.9082 29.3945 56.1191 29.0898C56.334 28.7852 56.6152 28.543 56.9629 28.3633C57.3145 28.1836 57.709 28.0938 58.1465 28.0938C58.5527 28.0938 58.8926 28.1973 59.166 28.4043C59.4434 28.6074 59.582 28.877 59.582 29.2129C59.582 29.4199 59.5137 29.5996 59.377 29.752C59.2402 29.9043 59.0645 29.9805 58.8496 29.9805C58.6426 29.9805 58.4766 29.9297 58.3516 29.8281C58.2305 29.7227 58.1699 29.5898 58.1699 29.4297C58.1699 29.3164 58.2031 29.207 58.2695 29.1016C58.3398 28.9961 58.4375 28.9219 58.5625 28.8789C58.4844 28.75 58.3906 28.668 58.2812 28.6328C58.1719 28.5938 58.002 28.5742 57.7715 28.5742C57.4121 28.5742 57.1113 28.7031 56.8691 28.9609C56.6309 29.2188 56.5117 29.5586 56.5117 29.9805V31.9609H57.7832C57.8066 32.0195 57.8184 32.0918 57.8184 32.1777C57.8184 32.252 57.8066 32.3203 57.7832 32.3828H56.5117C56.5117 34.3164 56.5273 35.5879 56.5586 36.1973C56.5625 36.2988 56.6016 36.3867 56.6758 36.4609C56.75 36.5312 56.8574 36.5859 56.998 36.625C57.1387 36.6641 57.2598 36.6934 57.3613 36.7129C57.4629 36.7285 57.5918 36.7441 57.748 36.7598C57.7637 36.8379 57.7715 36.8906 57.7715 36.918C57.7715 36.9492 57.7637 36.9883 57.748 37.0352ZM60.4609 30.6777C60.5 30.6621 60.5449 30.6543 60.5957 30.6543C60.6465 30.6543 60.6992 30.6621 60.7539 30.6777V31.9609H62.5293C62.5527 32.0195 62.5645 32.0918 62.5645 32.1777C62.5645 32.252 62.5527 32.3203 62.5293 32.3828H60.7539V35.5117C60.7539 36.1289 61.0371 36.4375 61.6035 36.4375C61.8184 36.4375 62.002 36.3965 62.1543 36.3145C62.3105 36.2324 62.4824 36.1094 62.6699 35.9453C62.7676 35.957 62.832 36.0039 62.8633 36.0859C62.6914 36.3945 62.4375 36.6523 62.1016 36.8594C61.7656 37.0664 61.3965 37.1699 60.9941 37.1699C60.0488 37.1699 59.5762 36.5977 59.5762 35.4531V32.3828H58.8555C58.8398 32.3125 58.832 32.2676 58.832 32.248C58.832 32.2441 58.8398 32.1992 58.8555 32.1133C59.043 32.0195 59.1855 31.9434 59.2832 31.8848C59.3848 31.8223 59.5117 31.7344 59.6641 31.6211C59.8203 31.5078 59.9609 31.375 60.0859 31.2227C60.2148 31.0664 60.3398 30.8848 60.4609 30.6777ZM62.834 31.8027C63.3262 31.8262 63.8145 31.8379 64.2988 31.8379C64.6504 31.8379 65.0664 31.8262 65.5469 31.8027C65.5625 31.8652 65.5703 31.9141 65.5703 31.9492C65.5703 31.9727 65.5625 32.0156 65.5469 32.0781C65.4531 32.0859 65.375 32.0957 65.3125 32.1074C65.25 32.1152 65.1797 32.1309 65.1016 32.1543C65.0234 32.1777 64.9629 32.2129 64.9199 32.2598C64.8809 32.3066 64.8613 32.3633 64.8613 32.4297C64.8613 32.4648 64.877 32.5371 64.9082 32.6465L66.1094 35.6348H66.1328L67.2051 33.2793L66.9648 32.6465C66.9258 32.5449 66.875 32.459 66.8125 32.3887C66.75 32.3145 66.6738 32.2578 66.584 32.2188C66.4941 32.1797 66.416 32.1504 66.3496 32.1309C66.2871 32.1113 66.207 32.0938 66.1094 32.0781C66.0938 32.0469 66.0859 32.0039 66.0859 31.9492C66.0859 31.8906 66.0938 31.8418 66.1094 31.8027C66.6016 31.8262 67.0547 31.8379 67.4688 31.8379C67.875 31.8379 68.3184 31.8262 68.7988 31.8027C68.8145 31.8652 68.8223 31.9141 68.8223 31.9492C68.8223 31.9727 68.8145 32.0156 68.7988 32.0781C68.6934 32.0859 68.6094 32.0957 68.5469 32.1074C68.4844 32.1152 68.4043 32.1309 68.3066 32.1543C68.2129 32.1777 68.1406 32.2129 68.0898 32.2598C68.043 32.3066 68.0195 32.3633 68.0195 32.4297C68.0195 32.4648 68.0352 32.5371 68.0664 32.6465L69.1445 35.6348H69.168L70.4336 32.6465C70.4727 32.5488 70.4922 32.4648 70.4922 32.3945C70.4922 32.2188 70.2793 32.1133 69.8535 32.0781C69.8379 32.0156 69.8301 31.9727 69.8301 31.9492C69.8301 31.9141 69.8379 31.8652 69.8535 31.8027C70.2871 31.8262 70.5547 31.8379 70.6562 31.8379C70.9688 31.8379 71.3652 31.8262 71.8457 31.8027C71.8613 31.8496 71.8691 31.8906 71.8691 31.9258C71.8691 31.9492 71.8613 32 71.8457 32.0781C71.3926 32.0977 71.0938 32.2871 70.9492 32.6465L68.9805 37.1699H68.7051L67.4336 33.8828L65.9453 37.1699H65.6641L63.8066 32.6465C63.7637 32.5488 63.7031 32.4648 63.625 32.3945C63.5508 32.3203 63.4609 32.2637 63.3555 32.2246C63.25 32.1816 63.1621 32.1523 63.0918 32.1367C63.0254 32.1172 62.9395 32.0977 62.834 32.0781C62.8184 32.0469 62.8105 32.0039 62.8105 31.9492C62.8105 31.8906 62.8184 31.8418 62.834 31.8027ZM72.7539 33.1504C72.7539 32.7207 72.9492 32.3672 73.3398 32.0898C73.7344 31.8125 74.1992 31.6738 74.7344 31.6738C75.3906 31.6738 75.8516 31.8047 76.1172 32.0664C76.3867 32.3281 76.5215 32.7695 76.5215 33.3906V35.8223C76.5215 36.041 76.6016 36.1504 76.7617 36.1504C76.8906 36.1504 77.0547 35.9941 77.2539 35.6816C77.3945 35.6934 77.4902 35.7559 77.541 35.8691C77.5137 35.9082 77.4668 35.9785 77.4004 36.0801C77.334 36.1816 77.2852 36.2539 77.2539 36.2969C77.2227 36.3398 77.1738 36.4062 77.1074 36.4961C77.041 36.582 76.9863 36.6465 76.9434 36.6895C76.9043 36.7324 76.8496 36.7832 76.7793 36.8418C76.7129 36.9004 76.6504 36.9453 76.5918 36.9766C76.5371 37.0039 76.4727 37.0273 76.3984 37.0469C76.3242 37.0703 76.25 37.082 76.1758 37.082C75.9805 37.082 75.8184 37.0117 75.6895 36.8711C75.5645 36.7305 75.4902 36.5137 75.4668 36.2207C75.4629 36.2246 75.4023 36.2812 75.2852 36.3906C75.168 36.5 75.0859 36.5742 75.0391 36.6133C74.9961 36.6484 74.9121 36.7129 74.7871 36.8066C74.666 36.8965 74.5625 36.9609 74.4766 37C74.3906 37.0391 74.2832 37.0762 74.1543 37.1113C74.0254 37.1504 73.8984 37.1699 73.7734 37.1699C73.5742 37.1699 73.3965 37.1426 73.2402 37.0879C73.0879 37.0332 72.9688 36.9668 72.8828 36.8887C72.7969 36.8105 72.7266 36.7207 72.6719 36.6191C72.6172 36.5137 72.5801 36.418 72.5605 36.332C72.5449 36.2461 72.5371 36.1602 72.5371 36.0742C72.5371 35.8125 72.5801 35.5918 72.666 35.4121C72.7559 35.2324 72.9199 35.0645 73.1582 34.9082C73.4004 34.752 73.6973 34.6133 74.0488 34.4922C74.4004 34.3711 74.873 34.2344 75.4668 34.082V33.2676C75.4668 32.873 75.3789 32.5781 75.2031 32.3828C75.0312 32.1875 74.7988 32.0898 74.5059 32.0898C74.2441 32.0898 74.0234 32.1426 73.8438 32.248C73.668 32.3496 73.5605 32.4688 73.5215 32.6055C73.9043 32.6641 74.0957 32.873 74.0957 33.2324C74.0957 33.3965 74.0371 33.541 73.9199 33.666C73.8027 33.791 73.6387 33.8535 73.4277 33.8535C73.252 33.8535 73.0957 33.793 72.959 33.6719C72.8223 33.5469 72.7539 33.373 72.7539 33.1504ZM75.4668 35.6816V34.457C75.1074 34.5391 74.8105 34.6289 74.5762 34.7266C74.3418 34.8203 74.1621 34.9238 74.0371 35.0371C73.916 35.1504 73.832 35.2676 73.7852 35.3887C73.7383 35.5059 73.7148 35.6426 73.7148 35.7988C73.7148 35.9941 73.7715 36.1484 73.8848 36.2617C74.002 36.3711 74.1445 36.4258 74.3125 36.4258C74.7031 36.4258 75.0879 36.1777 75.4668 35.6816ZM78.2852 32.1777C79.043 32.0996 79.7031 31.9395 80.2656 31.6973C80.3633 31.7363 80.4316 31.7871 80.4707 31.8496V32.8574C80.6152 32.584 80.8301 32.3184 81.1152 32.0605C81.4043 31.8027 81.7051 31.6738 82.0176 31.6738C82.252 31.6738 82.4414 31.7441 82.5859 31.8848C82.7344 32.0215 82.8086 32.2109 82.8086 32.4531C82.8086 32.6836 82.7402 32.8633 82.6035 32.9922C82.4668 33.1211 82.2949 33.1855 82.0879 33.1855C81.8965 33.1855 81.7383 33.125 81.6133 33.0039C81.4922 32.8789 81.4258 32.7148 81.4141 32.5117C81.25 32.582 81.0625 32.7383 80.8516 32.9805C80.6445 33.2227 80.5176 33.4629 80.4707 33.7012C80.4707 34.5723 80.4863 35.4043 80.5176 36.1973C80.5215 36.2988 80.5586 36.3867 80.6289 36.4609C80.6992 36.5312 80.8027 36.5859 80.9395 36.625C81.0762 36.6641 81.1895 36.6934 81.2793 36.7129C81.3691 36.7285 81.4863 36.7441 81.6309 36.7598C81.6543 36.8066 81.666 36.8555 81.666 36.9062C81.666 36.9453 81.6543 36.9883 81.6309 37.0352C81.0449 37.0117 80.4648 37 79.8906 37C79.4141 37 78.918 37.0117 78.4023 37.0352C78.3867 36.9727 78.3789 36.9297 78.3789 36.9062C78.3789 36.8867 78.3867 36.8379 78.4023 36.7598C78.5312 36.7441 78.6367 36.7285 78.7188 36.7129C78.8008 36.6934 78.9023 36.6641 79.0234 36.625C79.1445 36.5859 79.2363 36.5312 79.2988 36.4609C79.3613 36.3867 79.3945 36.2988 79.3984 36.1973C79.4141 35.8105 79.4219 35.3418 79.4219 34.791C79.4219 34.6074 79.4199 34.2949 79.416 33.8535C79.4121 33.4121 79.4102 33.0254 79.4102 32.6934C79.1875 32.5566 78.8125 32.4766 78.2852 32.4531C78.2695 32.3906 78.2617 32.3418 78.2617 32.3066C78.2617 32.2832 78.2695 32.2402 78.2852 32.1777ZM88.1523 33.8945H84.959C84.9434 34.1289 84.9355 34.3359 84.9355 34.5156C84.9473 35.0977 85.1172 35.5645 85.4453 35.916C85.7734 36.2637 86.2129 36.4375 86.7637 36.4375C86.9121 36.4375 87.0508 36.4219 87.1797 36.3906C87.3086 36.3555 87.4141 36.3164 87.4961 36.2734C87.582 36.2305 87.6699 36.168 87.7598 36.0859C87.8496 36.0039 87.9141 35.9395 87.9531 35.8926C87.9961 35.8418 88.0527 35.7676 88.123 35.6699C88.1934 35.5684 88.2402 35.5039 88.2637 35.4766C88.3574 35.4961 88.4336 35.5391 88.4922 35.6055C88.2969 36.1289 87.9941 36.5215 87.584 36.7832C87.1738 37.041 86.7285 37.1699 86.248 37.1699C86.0098 37.1699 85.7773 37.1387 85.5508 37.0762C85.3281 37.0176 85.1113 36.9199 84.9004 36.7832C84.6895 36.6465 84.5059 36.4785 84.3496 36.2793C84.1934 36.0762 84.0684 35.8242 83.9746 35.5234C83.8809 35.2188 83.834 34.8828 83.834 34.5156C83.834 33.6914 84.0859 33.0117 84.5898 32.4766C85.0938 31.9414 85.7129 31.6738 86.4473 31.6738C86.7715 31.6738 87.0527 31.7207 87.291 31.8145C87.5332 31.9043 87.7207 32.0273 87.8535 32.1836C87.9902 32.3398 88.0898 32.5117 88.1523 32.6992C88.2188 32.8828 88.252 33.0801 88.252 33.291C88.252 33.4863 88.2188 33.6875 88.1523 33.8945ZM86.3066 32.0547C86.0371 32.0547 85.7812 32.1738 85.5391 32.4121C85.3008 32.6504 85.1289 33.0117 85.0234 33.4961H87.1328C87.1719 33.3477 87.1914 33.2188 87.1914 33.1094C87.1914 32.8047 87.1211 32.5527 86.9805 32.3535C86.8398 32.1543 86.6152 32.0547 86.3066 32.0547ZM92.5469 28.3867C93.4219 28.418 94.1211 28.4336 94.6445 28.4336C95.6211 28.4023 96.2207 28.3867 96.4434 28.3867C96.8066 28.3867 97.1484 28.4023 97.4688 28.4336C97.7891 28.4648 98.1191 28.5234 98.459 28.6094C98.8027 28.6914 99.1133 28.8008 99.3906 28.9375C99.668 29.0703 99.9336 29.248 100.188 29.4707C100.441 29.6934 100.654 29.9512 100.826 30.2441C100.998 30.5371 101.135 30.8906 101.236 31.3047C101.338 31.7148 101.389 32.1699 101.389 32.6699C101.357 33.1504 101.273 33.5918 101.137 33.9941C101.004 34.3965 100.832 34.7441 100.621 35.0371C100.414 35.3301 100.168 35.5918 99.8828 35.8223C99.5977 36.0527 99.2988 36.2402 98.9863 36.3848C98.6777 36.5293 98.3418 36.6484 97.9785 36.7422C97.6191 36.8359 97.2676 36.9023 96.9238 36.9414C96.584 36.9805 96.2324 37 95.8691 37C94.4043 37 93.293 37.0117 92.5352 37.0352C92.5195 36.9883 92.5117 36.9492 92.5117 36.918C92.5117 36.8906 92.5195 36.8379 92.5352 36.7598C92.6523 36.748 92.7461 36.7383 92.8164 36.7305C92.8867 36.7227 92.9824 36.709 93.1035 36.6895C93.2285 36.6699 93.3281 36.6484 93.4023 36.625C93.4805 36.5977 93.5605 36.5645 93.6426 36.5254C93.7246 36.4863 93.7852 36.4395 93.8242 36.3848C93.8672 36.3301 93.8887 36.2676 93.8887 36.1973C93.9355 34.9746 93.959 33.7422 93.959 32.5C93.959 31.2344 93.9395 30.1426 93.9004 29.2246C93.8965 29.123 93.8516 29.0371 93.7656 28.9668C93.6797 28.8926 93.5547 28.8359 93.3906 28.7969C93.2305 28.7578 93.0938 28.7305 92.9805 28.7148C92.8711 28.6953 92.7266 28.6777 92.5469 28.6621C92.5312 28.5918 92.5234 28.543 92.5234 28.5156C92.5234 28.4922 92.5312 28.4492 92.5469 28.3867ZM95.2715 29.2246C95.2207 30.5527 95.1953 31.7891 95.1953 32.9336C95.1953 33.5664 95.2168 34.7773 95.2598 36.5664C95.4277 36.5742 95.668 36.5781 95.9805 36.5781C96.6133 36.5781 97.1758 36.4824 97.668 36.291C98.1602 36.0957 98.5645 35.8242 98.8809 35.4766C99.1973 35.1289 99.4355 34.7188 99.5957 34.2461C99.7598 33.7695 99.8418 33.2441 99.8418 32.6699C99.8418 32.373 99.8184 32.082 99.7715 31.7969C99.7246 31.5117 99.6504 31.2207 99.5488 30.9238C99.4473 30.627 99.3066 30.3535 99.127 30.1035C98.9473 29.8535 98.7324 29.6309 98.4824 29.4355C98.2363 29.2363 97.9316 29.082 97.5684 28.9727C97.209 28.8594 96.8105 28.8027 96.373 28.8027C95.9707 28.8027 95.6035 28.8281 95.2715 28.8789V29.2246ZM107.207 33.8945H104.014C103.998 34.1289 103.99 34.3359 103.99 34.5156C104.002 35.0977 104.172 35.5645 104.5 35.916C104.828 36.2637 105.268 36.4375 105.818 36.4375C105.967 36.4375 106.105 36.4219 106.234 36.3906C106.363 36.3555 106.469 36.3164 106.551 36.2734C106.637 36.2305 106.725 36.168 106.814 36.0859C106.904 36.0039 106.969 35.9395 107.008 35.8926C107.051 35.8418 107.107 35.7676 107.178 35.6699C107.248 35.5684 107.295 35.5039 107.318 35.4766C107.412 35.4961 107.488 35.5391 107.547 35.6055C107.352 36.1289 107.049 36.5215 106.639 36.7832C106.229 37.041 105.783 37.1699 105.303 37.1699C105.064 37.1699 104.832 37.1387 104.605 37.0762C104.383 37.0176 104.166 36.9199 103.955 36.7832C103.744 36.6465 103.561 36.4785 103.404 36.2793C103.248 36.0762 103.123 35.8242 103.029 35.5234C102.936 35.2188 102.889 34.8828 102.889 34.5156C102.889 33.6914 103.141 33.0117 103.645 32.4766C104.148 31.9414 104.768 31.6738 105.502 31.6738C105.826 31.6738 106.107 31.7207 106.346 31.8145C106.588 31.9043 106.775 32.0273 106.908 32.1836C107.045 32.3398 107.145 32.5117 107.207 32.6992C107.273 32.8828 107.307 33.0801 107.307 33.291C107.307 33.4863 107.273 33.6875 107.207 33.8945ZM105.361 32.0547C105.092 32.0547 104.836 32.1738 104.594 32.4121C104.355 32.6504 104.184 33.0117 104.078 33.4961H106.188C106.227 33.3477 106.246 33.2188 106.246 33.1094C106.246 32.8047 106.176 32.5527 106.035 32.3535C105.895 32.1543 105.67 32.0547 105.361 32.0547ZM107.811 31.8027C108.326 31.8262 108.846 31.8379 109.369 31.8379C109.811 31.8379 110.283 31.8262 110.787 31.8027C110.803 31.8652 110.811 31.9141 110.811 31.9492C110.811 31.9727 110.803 32.0156 110.787 32.0781C110.678 32.0859 110.588 32.0957 110.518 32.1074C110.451 32.1152 110.367 32.1309 110.266 32.1543C110.164 32.1777 110.088 32.2129 110.037 32.2598C109.986 32.3066 109.961 32.3633 109.961 32.4297C109.961 32.4648 109.977 32.5371 110.008 32.6465L111.074 35.6055H111.109L112.357 32.6465C112.4 32.541 112.422 32.457 112.422 32.3945C112.422 32.2148 112.197 32.1094 111.748 32.0781C111.732 32.0156 111.725 31.9727 111.725 31.9492C111.725 31.9141 111.732 31.8652 111.748 31.8027C112.205 31.8262 112.488 31.8379 112.598 31.8379C112.926 31.8379 113.342 31.8262 113.846 31.8027C113.861 31.8496 113.869 31.8906 113.869 31.9258C113.869 31.9492 113.861 32 113.846 32.0781C113.381 32.0977 113.064 32.2871 112.896 32.6465L110.893 37.1699H110.605L108.83 32.6465C108.791 32.5449 108.732 32.459 108.654 32.3887C108.58 32.3145 108.482 32.2578 108.361 32.2188C108.244 32.1758 108.152 32.1465 108.086 32.1309C108.023 32.1152 107.932 32.0977 107.811 32.0781C107.795 32.0469 107.787 32.0039 107.787 31.9492C107.787 31.8906 107.795 31.8418 107.811 31.8027ZM118.797 33.8945H115.604C115.588 34.1289 115.58 34.3359 115.58 34.5156C115.592 35.0977 115.762 35.5645 116.09 35.916C116.418 36.2637 116.857 36.4375 117.408 36.4375C117.557 36.4375 117.695 36.4219 117.824 36.3906C117.953 36.3555 118.059 36.3164 118.141 36.2734C118.227 36.2305 118.314 36.168 118.404 36.0859C118.494 36.0039 118.559 35.9395 118.598 35.8926C118.641 35.8418 118.697 35.7676 118.768 35.6699C118.838 35.5684 118.885 35.5039 118.908 35.4766C119.002 35.4961 119.078 35.5391 119.137 35.6055C118.941 36.1289 118.639 36.5215 118.229 36.7832C117.818 37.041 117.373 37.1699 116.893 37.1699C116.654 37.1699 116.422 37.1387 116.195 37.0762C115.973 37.0176 115.756 36.9199 115.545 36.7832C115.334 36.6465 115.15 36.4785 114.994 36.2793C114.838 36.0762 114.713 35.8242 114.619 35.5234C114.525 35.2188 114.479 34.8828 114.479 34.5156C114.479 33.6914 114.73 33.0117 115.234 32.4766C115.738 31.9414 116.357 31.6738 117.092 31.6738C117.416 31.6738 117.697 31.7207 117.936 31.8145C118.178 31.9043 118.365 32.0273 118.498 32.1836C118.635 32.3398 118.734 32.5117 118.797 32.6992C118.863 32.8828 118.896 33.0801 118.896 33.291C118.896 33.4863 118.863 33.6875 118.797 33.8945ZM116.951 32.0547C116.682 32.0547 116.426 32.1738 116.184 32.4121C115.945 32.6504 115.773 33.0117 115.668 33.4961H117.777C117.816 33.3477 117.836 33.2188 117.836 33.1094C117.836 32.8047 117.766 32.5527 117.625 32.3535C117.484 32.1543 117.26 32.0547 116.951 32.0547ZM120.004 28.5742C120.746 28.5039 121.404 28.3438 121.979 28.0938C122.084 28.1367 122.152 28.1895 122.184 28.252C122.184 32.6777 122.199 35.3262 122.23 36.1973C122.234 36.2793 122.258 36.3535 122.301 36.4199C122.348 36.4824 122.398 36.5332 122.453 36.5723C122.508 36.6074 122.582 36.6406 122.676 36.6719C122.77 36.6992 122.842 36.7188 122.893 36.7305C122.947 36.7383 123.02 36.748 123.109 36.7598C123.133 36.8066 123.145 36.8555 123.145 36.9062C123.145 36.957 123.133 37 123.109 37.0352C122.594 37.0117 122.094 37 121.609 37C121.133 37 120.637 37.0117 120.121 37.0352C120.105 36.9727 120.098 36.9297 120.098 36.9062C120.098 36.8867 120.105 36.8379 120.121 36.7598C120.25 36.7441 120.354 36.7285 120.432 36.7129C120.514 36.6934 120.615 36.6641 120.736 36.625C120.861 36.5859 120.955 36.5312 121.018 36.4609C121.08 36.3867 121.113 36.2988 121.117 36.1973C121.133 35.8105 121.141 34.9453 121.141 33.6016C121.141 32.9805 121.139 32.1348 121.135 31.0645C121.131 29.9941 121.129 29.3359 121.129 29.0898C120.906 28.9609 120.531 28.8809 120.004 28.8496C119.984 28.7988 119.975 28.752 119.975 28.709C119.975 28.6699 119.984 28.625 120.004 28.5742ZM126.748 31.6738C127.135 31.6738 127.482 31.7422 127.791 31.8789C128.104 32.0156 128.369 32.2051 128.588 32.4473C128.807 32.6895 128.975 32.9805 129.092 33.3203C129.209 33.6562 129.268 34.0234 129.268 34.4219C129.268 35.2344 129.039 35.8945 128.582 36.4023C128.129 36.9141 127.518 37.1699 126.748 37.1699C126.365 37.1699 126.018 37.1035 125.705 36.9707C125.396 36.834 125.133 36.6445 124.914 36.4023C124.695 36.1562 124.525 35.8652 124.404 35.5293C124.287 35.1934 124.229 34.8242 124.229 34.4219C124.229 34.0234 124.287 33.6562 124.404 33.3203C124.521 32.9805 124.688 32.6895 124.902 32.4473C125.121 32.2051 125.387 32.0156 125.699 31.8789C126.012 31.7422 126.361 31.6738 126.748 31.6738ZM126.748 32.0547C126.35 32.0547 126.031 32.248 125.793 32.6348C125.559 33.0215 125.441 33.6172 125.441 34.4219C125.441 35.2266 125.559 35.8223 125.793 36.209C126.031 36.5918 126.35 36.7832 126.748 36.7832C127.146 36.7832 127.463 36.5898 127.697 36.2031C127.936 35.8164 128.055 35.2227 128.055 34.4219C128.055 34.0195 128.023 33.6699 127.961 33.373C127.898 33.0762 127.811 32.8301 127.697 32.6348C127.584 32.4395 127.447 32.2949 127.287 32.2012C127.127 32.1035 126.947 32.0547 126.748 32.0547ZM130.07 32.1777C130.836 32.0996 131.496 31.9395 132.051 31.6973C132.156 31.7324 132.225 31.7832 132.256 31.8496V32.5352C132.857 31.9609 133.461 31.6738 134.066 31.6738C134.668 31.6738 135.158 31.8984 135.537 32.3477C135.916 32.793 136.105 33.3965 136.105 34.1582C136.105 34.4434 136.074 34.7246 136.012 35.002C135.949 35.2754 135.846 35.5449 135.701 35.8105C135.561 36.0723 135.385 36.3027 135.174 36.502C134.967 36.7012 134.703 36.8633 134.383 36.9883C134.062 37.1094 133.709 37.1699 133.322 37.1699C132.959 37.1699 132.607 37.1016 132.268 36.9648C132.268 38.0273 132.279 38.8105 132.303 39.3145C132.307 39.3965 132.34 39.4688 132.402 39.5312C132.465 39.5977 132.537 39.6484 132.619 39.6836C132.701 39.7227 132.812 39.7559 132.953 39.7832C133.094 39.8145 133.209 39.834 133.299 39.8418C133.393 39.8535 133.514 39.8672 133.662 39.8828C133.686 39.9297 133.697 39.9766 133.697 40.0234C133.697 40.0703 133.686 40.1152 133.662 40.1582C132.85 40.1309 132.189 40.1172 131.682 40.1172C131.291 40.1172 130.795 40.1309 130.193 40.1582C130.178 40.0879 130.17 40.043 130.17 40.0234C130.17 40.0078 130.178 39.9609 130.193 39.8828C130.33 39.8633 130.436 39.8457 130.51 39.8301C130.584 39.8145 130.684 39.7852 130.809 39.7422C130.934 39.7031 131.027 39.6465 131.09 39.5723C131.152 39.502 131.186 39.416 131.189 39.3145C131.205 38.9316 131.213 38.0684 131.213 36.7246C131.213 36.0996 131.211 35.332 131.207 34.4219C131.203 33.5117 131.201 32.9355 131.201 32.6934C130.979 32.5566 130.602 32.4766 130.07 32.4531C130.055 32.3906 130.047 32.3418 130.047 32.3066C130.047 32.2832 130.055 32.2402 130.07 32.1777ZM133.504 32.4414C133.25 32.4414 133.027 32.4883 132.836 32.582C132.645 32.6758 132.451 32.8125 132.256 32.9922V36.0391C132.486 36.5352 132.898 36.7832 133.492 36.7832C133.609 36.7832 133.727 36.7637 133.844 36.7246C133.965 36.6855 134.092 36.6113 134.225 36.502C134.357 36.3926 134.473 36.2539 134.57 36.0859C134.672 35.918 134.756 35.6914 134.822 35.4062C134.889 35.1211 134.922 34.7969 134.922 34.4336C134.922 34.0586 134.873 33.7246 134.775 33.4316C134.678 33.1387 134.52 32.9004 134.301 32.7168C134.082 32.5332 133.816 32.4414 133.504 32.4414ZM141.871 33.8945H138.678C138.662 34.1289 138.654 34.3359 138.654 34.5156C138.666 35.0977 138.836 35.5645 139.164 35.916C139.492 36.2637 139.932 36.4375 140.482 36.4375C140.631 36.4375 140.77 36.4219 140.898 36.3906C141.027 36.3555 141.133 36.3164 141.215 36.2734C141.301 36.2305 141.389 36.168 141.479 36.0859C141.568 36.0039 141.633 35.9395 141.672 35.8926C141.715 35.8418 141.771 35.7676 141.842 35.6699C141.912 35.5684 141.959 35.5039 141.982 35.4766C142.076 35.4961 142.152 35.5391 142.211 35.6055C142.016 36.1289 141.713 36.5215 141.303 36.7832C140.893 37.041 140.447 37.1699 139.967 37.1699C139.729 37.1699 139.496 37.1387 139.27 37.0762C139.047 37.0176 138.83 36.9199 138.619 36.7832C138.408 36.6465 138.225 36.4785 138.068 36.2793C137.912 36.0762 137.787 35.8242 137.693 35.5234C137.6 35.2188 137.553 34.8828 137.553 34.5156C137.553 33.6914 137.805 33.0117 138.309 32.4766C138.812 31.9414 139.432 31.6738 140.166 31.6738C140.49 31.6738 140.771 31.7207 141.01 31.8145C141.252 31.9043 141.439 32.0273 141.572 32.1836C141.709 32.3398 141.809 32.5117 141.871 32.6992C141.938 32.8828 141.971 33.0801 141.971 33.291C141.971 33.4863 141.938 33.6875 141.871 33.8945ZM140.025 32.0547C139.756 32.0547 139.5 32.1738 139.258 32.4121C139.02 32.6504 138.848 33.0117 138.742 33.4961H140.852C140.891 33.3477 140.91 33.2188 140.91 33.1094C140.91 32.8047 140.84 32.5527 140.699 32.3535C140.559 32.1543 140.334 32.0547 140.025 32.0547ZM143.137 32.1777C143.895 32.0996 144.555 31.9395 145.117 31.6973C145.215 31.7363 145.283 31.7871 145.322 31.8496V32.8574C145.467 32.584 145.682 32.3184 145.967 32.0605C146.256 31.8027 146.557 31.6738 146.869 31.6738C147.104 31.6738 147.293 31.7441 147.438 31.8848C147.586 32.0215 147.66 32.2109 147.66 32.4531C147.66 32.6836 147.592 32.8633 147.455 32.9922C147.318 33.1211 147.146 33.1855 146.939 33.1855C146.748 33.1855 146.59 33.125 146.465 33.0039C146.344 32.8789 146.277 32.7148 146.266 32.5117C146.102 32.582 145.914 32.7383 145.703 32.9805C145.496 33.2227 145.369 33.4629 145.322 33.7012C145.322 34.5723 145.338 35.4043 145.369 36.1973C145.373 36.2988 145.41 36.3867 145.48 36.4609C145.551 36.5312 145.654 36.5859 145.791 36.625C145.928 36.6641 146.041 36.6934 146.131 36.7129C146.221 36.7285 146.338 36.7441 146.482 36.7598C146.506 36.8066 146.518 36.8555 146.518 36.9062C146.518 36.9453 146.506 36.9883 146.482 37.0352C145.896 37.0117 145.316 37 144.742 37C144.266 37 143.77 37.0117 143.254 37.0352C143.238 36.9727 143.23 36.9297 143.23 36.9062C143.23 36.8867 143.238 36.8379 143.254 36.7598C143.383 36.7441 143.488 36.7285 143.57 36.7129C143.652 36.6934 143.754 36.6641 143.875 36.625C143.996 36.5859 144.088 36.5312 144.15 36.4609C144.213 36.3867 144.246 36.2988 144.25 36.1973C144.266 35.8105 144.273 35.3418 144.273 34.791C144.273 34.6074 144.271 34.2949 144.268 33.8535C144.264 33.4121 144.262 33.0254 144.262 32.6934C144.039 32.5566 143.664 32.4766 143.137 32.4531C143.121 32.3906 143.113 32.3418 143.113 32.3066C143.113 32.2832 143.121 32.2402 143.137 32.1777Z" fill="black"/>
</g>
</svg>
